<svg xmlns="http://www.w3.org/2000/svg" width="250" height="250" viewBox="0 0 250 250">
  <path d="m140.4 30c-42.02-0.93-72.77 30.19-82.49 65.17-9.72 34.97-2.83 77.06 19.1 119.7 2.91 5.61 6.22 13.3 8.24 14.89 1.67 1.3 5.1-0.61 4.76-1.94-0.67-2.71-3.6-7.75-5.9-12.59-19.87-42.48-28.19-79-20.04-114.2 8.74-37.64 36.95-63.46 74.65-63.46 32.39 0 59.61 22.56 63.59 53.51 3.46 27.8-15.18 59.54-54.13 60.16-25.94-0.51-45.05-17.44-45.05-37.53 0-16.01 11.85-33.37 29.62-33.37 12.52 0 22.16 9.7 22.16 19.79 0 6.89-5.29 12.82-12.03 12.82-5.8 0-8.32-3.62-9.09-9.06-5.32 1.03-5.66 8.01-1 12.13 2.93 2.65 6.46 2.86 10.34 2.86 11.28 0 19.1-11.69 19.1-20.19 0-12.62-13.06-25.92-28.61-25.92-24.51 0-37.81 20.67-37.81 41.86 0 21.55 17.81 43.34 51.01 43.34 32.95 0 62.46-25.1 62.46-60.44 0-32.52-26.66-67.57-68.88-67.57z" fill="#22201E" stroke="#000" stroke-miterlimit="10" stroke-width=".7"/>
  <path d="m137.2 49.72c-26.03 0-47.15 16.41-55.17 40.19-11.88 35.34-5.28 72.94 10.3 108.7 5.29 12.16 12.19 26.53 15.44 30.8 1.63 1.26 6.08-0.49 6.08-2.45 0-2.12-7.14-15.13-13.7-29.92-13.83-30.03-20.09-61.86-14.5-90.93 6.13-29.1 25.11-49.23 52.57-49.61 24.73-0.34 44.44 18.39 44.44 41.28 0 18.36-13.7 35.85-36.34 35.85-15.04 0-26.2-9.92-26.2-20.81 0-10.01 7.03-16.9 14.35-16.81 3.29 0.04 4.53 1.47 6.06 2.5 2.39-0.04 2-5.89-3.46-8.13-11.32-3.25-23.45 6.8-23.45 21.78 0 14.03 12 27.73 33.2 27.73 22.93 0 41.48-19.68 41.48-42.75s-19.04-47.42-51.1-47.42z" fill="#100F0D" stroke="#000" stroke-miterlimit="10" stroke-width=".7"/>
</svg>
